<svg id="Layer_1" data-name="Layer 1" xmlns="http://www.w3.org/2000/svg" viewBox="0 0 208.7235 208.7235">
  <path id="logoMark" d="M104.3577,0A104.473,104.473,0,0,0,.0082,103.5035C0,103.791,0,104.0786,0,104.3657c0,1.5114.0329,3.0224.0986,4.5169a103.4428,103.4428,0,0,0,5.6831,29.7463c1.0841,3.129,2.3242,6.1923,3.6957,9.1818a103.27,103.27,0,0,0,5.7981,10.8568A104.3613,104.3613,0,0,0,35.61,182.8125a104.1549,104.1549,0,0,0,68.7559,25.911,104.2837,104.2837,0,0,0,68.7724-25.9274,104.7642,104.7642,0,0,0,20.3508-24.1943,102.4141,102.4141,0,0,0,5.7653-10.816q2.0571-4.4715,3.6874-9.165a103.4394,103.4394,0,0,0,5.6831-29.7382c.0658-1.4945.0986-3.0055.0986-4.5169v-.5009A104.4869,104.4869,0,0,0,104.3577,0Zm.0082,9.0339a95.4638,95.4638,0,0,1,94.6092,83.6288L155.9493,43.2148H52.4622L9.7977,92.2521A95.4716,95.4716,0,0,1,104.3659,9.0339Zm4.36,43.2148h35.1919L108.7268,92.3672ZM99.692,92.366,64.4936,52.2487H99.692ZM50.0057,99.8487H15.1687l34.837-40.0432Zm44.234,0H59.04V59.7373Zm55.1377-40.1164V99.8487H114.18Zm43.8735,40.1164h-34.84V59.8105ZM21.049,150.6522A46.2784,46.2784,0,0,0,38.23,153.5675a46.6762,46.6762,0,0,0,18.0184-3.2192A37.4838,37.4838,0,0,1,71.22,147.6547a37.4376,37.4376,0,0,1,14.9635,2.6936,46.6772,46.6772,0,0,0,18.0185,3.2192,46.6774,46.6774,0,0,0,18.0184-3.2192,37.4819,37.4819,0,0,1,14.9716-2.6936,37.5125,37.5125,0,0,1,14.9715,2.6936,46.6774,46.6774,0,0,0,18.0184,3.2192,46.426,46.426,0,0,0,17.5669-3.0552,94.1323,94.1323,0,0,1-8.073,12.2206,40.0167,40.0167,0,0,1-9.4939.9689,37.4613,37.4613,0,0,1-14.9715-2.6936,46.6766,46.6766,0,0,0-18.0184-3.2193,46.6768,46.6768,0,0,0-18.0185,3.2193,37.4917,37.4917,0,0,1-14.9715,2.6936,37.4465,37.4465,0,0,1-14.9635-2.6936A46.6768,46.6768,0,0,0,71.22,157.7889a46.6766,46.6766,0,0,0-18.0184,3.2193A37.4907,37.4907,0,0,1,38.23,163.7018a40.1915,40.1915,0,0,1-9.1159-.8866A94.6254,94.6254,0,0,1,21.049,150.6522ZM104.3659,199.69h-.0082a94.6625,94.6625,0,0,1-45.8758-11.7932A36.5225,36.5225,0,0,1,71.22,185.9909a37.4366,37.4366,0,0,1,14.9635,2.694,46.6772,46.6772,0,0,0,18.0185,3.2192,46.6774,46.6774,0,0,0,18.0184-3.2192,37.4808,37.4808,0,0,1,14.9716-2.694,36.6724,36.6724,0,0,1,12.9348,1.971A94.6916,94.6916,0,0,1,104.3659,199.69Zm55.624-17.9611c-1.6919-.4435-3.1948-.9857-4.78-1.5523a46.6766,46.6766,0,0,0-18.0184-3.2193,46.6768,46.6768,0,0,0-18.0185,3.2193,37.4835,37.4835,0,0,1-14.9715,2.694,37.4383,37.4383,0,0,1-14.9635-2.694A46.6768,46.6768,0,0,0,71.22,176.957a46.6766,46.6766,0,0,0-18.0184,3.2193c-1.5111.5422-2.9483,1.06-4.5416,1.4865h-.0082a94.4955,94.4955,0,0,1-10.6435-8.9272H38.23a46.6685,46.6685,0,0,0,18.0184-3.2192A37.4908,37.4908,0,0,1,71.22,166.8228a37.4447,37.4447,0,0,1,14.9635,2.6936,46.67,46.67,0,0,0,18.0185,3.2192,46.67,46.67,0,0,0,18.0184-3.2192,37.489,37.489,0,0,1,14.9716-2.6936,37.52,37.52,0,0,1,14.9715,2.6936,46.67,46.67,0,0,0,18.0184,3.2192c.1808,0,.3614,0,.5422-.008A94.52,94.52,0,0,1,159.99,181.7286ZM192.9634,139.54a51.6774,51.6774,0,0,0-7.81,2.3,37.5229,37.5229,0,0,1-14.9717,2.6936A37.4613,37.4613,0,0,1,155.21,141.84a46.669,46.669,0,0,0-18.0184-3.2193,46.6692,46.6692,0,0,0-18.0185,3.2193,37.4917,37.4917,0,0,1-14.9715,2.6936A37.4465,37.4465,0,0,1,89.2382,141.84,46.6692,46.6692,0,0,0,71.22,138.6208,46.669,46.669,0,0,0,53.2013,141.84,37.4907,37.4907,0,0,1,38.23,144.5337,37.445,37.445,0,0,1,23.2664,141.84a53.2,53.2,0,0,0-7.4736-2.234,90.7528,90.7528,0,0,1-3.53-10.64,40.1822,40.1822,0,0,1,7.9523,2.21,46.6848,46.6848,0,0,0,18.0172,3.2216,46.684,46.684,0,0,0,18.0172-3.2216,37.4877,37.4877,0,0,1,14.968-2.6916,37.4948,37.4948,0,0,1,14.9688,2.6916,46.6854,46.6854,0,0,0,18.018,3.2216,46.6848,46.6848,0,0,0,18.0172-3.2216,37.4868,37.4868,0,0,1,14.9679-2.6916,37.5,37.5,0,0,1,14.97,2.6916,46.7006,46.7006,0,0,0,18.02,3.2216,46.6993,46.6993,0,0,0,18.02-3.2216,39.5679,39.5679,0,0,1,8.2793-2.2573l-.0006.0024a91.6964,91.6964,0,0,1-3.515,10.6106Zm5.5025-19.9235v.0064a45.8877,45.8877,0,0,0-13.3155,3.05,37.5021,37.5021,0,0,1-14.97,2.6916,37.5108,37.5108,0,0,1-14.9719-2.6916,46.6889,46.6889,0,0,0-18.0189-3.2217,46.6825,46.6825,0,0,0-18.0172,3.2217,37.4886,37.4886,0,0,1-14.9679,2.6916,37.4966,37.4966,0,0,1-14.9688-2.6916,46.6836,46.6836,0,0,0-18.018-3.2217A46.6821,46.6821,0,0,0,53.2,122.6728a37.4888,37.4888,0,0,1-14.968,2.6916,37.4886,37.4886,0,0,1-14.9679-2.6916,46.0142,46.0142,0,0,0-12.998-3.0212l0-.002a94.6565,94.6565,0,0,1-1.1251-10.767H199.5828A94.04,94.04,0,0,1,198.4659,119.6168Z" style="fill: #fff"/>
</svg>
